<?xml version="1.0" encoding="UTF-8"?>
<svg id="Layer_2" xmlns="http://www.w3.org/2000/svg" version="1.1" viewBox="0 0 388 32">
  <!-- Generator: Adobe Illustrator 30.1.0, SVG Export Plug-In . SVG Version: 2.1.1 Build 136)  -->
  <defs>
    <style>
      .st0 {
        fill: #969696;
      }

      .st1 {
        fill: #c7c7c7;
      }
    </style>
  </defs>
  <g id="Layer_1-2">
    <g>
      <g>
        <path class="st0" d="M203.2,1h6.2v.3l-10.2,14.6,10.5,15.1v.2h-6.4l-7.7-11.3-7.7,11.3h-6.4v-.2l10.5-15.1-10.2-14.6v-.3h6.2l7.6,11.3,7.5-11.2h0Z"/>
        <path class="st0" d="M241.5,1c1.8,0,3.4.3,4.8.9s2.5,1.4,3.5,2.4c.9,1,1.6,2.1,2.1,3.4s.7,2.6.7,3.9-.2,2.6-.7,3.9c-.5,1.3-1.2,2.4-2.1,3.4-.9,1-2.1,1.8-3.5,2.4s-3,.9-4.9.9h-8.5v8.9h-5.7V1c2.4,0,4.8,0,7.1,0,2.4,0,4.7,0,7.1,0h0ZM233,17.1h8.5c1.2,0,2.2-.3,3-.8.8-.5,1.4-1.2,1.8-2,.4-.8.6-1.6.6-2.6s-.2-1.8-.6-2.6c-.4-.8-1-1.4-1.8-2-.8-.5-1.8-.8-3-.8h-8.5v10.7h0Z"/>
        <path class="st0" d="M284.8.4c1.7,0,3.3.2,4.8.6s2.7,1,3.9,1.7c1.1.7,2.1,1.6,3,2.6.9,1,1.6,2.1,2.1,3.3.6,1.2,1,2.4,1.3,3.7.3,1.3.4,2.6.4,3.9s-.2,2.6-.4,3.9c-.3,1.3-.7,2.5-1.2,3.6s-1.2,2.2-2.1,3.2-1.8,1.8-3,2.6-2.4,1.3-3.9,1.7c-1.4.4-3,.6-4.8.6s-3.4-.2-4.8-.6-2.8-1-3.9-1.7-2.1-1.6-3-2.5c-.9-1-1.5-2-2.1-3.2s-1-2.4-1.2-3.7-.4-2.6-.4-3.9.1-2.6.4-3.9.7-2.5,1.3-3.7,1.3-2.3,2.1-3.3,1.9-1.9,3-2.6c1.1-.7,2.4-1.3,3.9-1.7,1.4-.4,3-.6,4.8-.6h0ZM284.8,5.6c-1.8,0-3.3.3-4.6,1s-2.3,1.5-3.1,2.5c-.8,1-1.4,2.2-1.7,3.5s-.5,2.6-.5,3.8c0,1.2.2,2.5.6,3.7s1,2.3,1.7,3.3,1.8,1.8,3,2.4c1.2.6,2.8.9,4.5.9s2.2-.1,3.2-.4c1-.3,1.8-.7,2.5-1.1s1.4-1.1,1.9-1.7c.5-.7,1-1.4,1.3-2.1.3-.8.6-1.6.8-2.4s.2-1.6.3-2.5c0-.8,0-1.7-.2-2.6s-.4-1.7-.7-2.5-.8-1.6-1.3-2.2c-.5-.7-1.2-1.3-1.9-1.8-.7-.5-1.6-.9-2.5-1.2-1-.3-2-.4-3.2-.4h0Z"/>
        <path class="st0" d="M337.2,8.3c-.2-.4-.6-.8-1.1-1.2s-1-.8-1.6-1.1c-.6-.3-1.3-.6-2.1-.8-.8-.2-1.5-.3-2.4-.3s-2,.1-2.8.3c-.8.2-1.4.5-2,.8s-.9.8-1.2,1.3-.4,1-.4,1.6.2,1.2.5,1.6c.4.4.9.8,1.5,1.1.6.3,1.3.5,2.1.7s1.7.3,2.6.4c1,.1,2.1.3,3.1.5,1,.2,2,.4,2.9.8s1.7.7,2.5,1.2,1.4,1,2,1.7c.5.7,1,1.5,1.3,2.4.3.9.5,2,.5,3.1s-.3,3.1-1,4.3-1.6,2.2-2.8,3c-1.2.8-2.5,1.4-4,1.7-1.5.4-3.1.6-4.8.6s-3-.1-4.3-.4-2.6-.7-3.7-1.2c-1.1-.6-2.1-1.4-3-2.3s-1.6-2.1-2.1-3.5l4.8-2.5c.3.8.8,1.5,1.4,2.1.6.6,1.2,1.1,2,1.5.7.4,1.5.7,2.4.9s1.8.3,2.7.3,1.8,0,2.6-.2c.8-.2,1.6-.4,2.2-.8.6-.4,1.2-.8,1.5-1.4.4-.6.6-1.3.6-2.1s-.2-1.3-.5-1.8-.8-.9-1.5-1.3-1.4-.6-2.2-.8c-.9-.2-1.8-.4-2.8-.5-1-.1-2-.3-3-.5-1-.2-1.9-.4-2.8-.7-.9-.3-1.7-.7-2.4-1.1-.7-.4-1.4-1-1.9-1.6-.5-.6-1-1.4-1.2-2.2-.3-.9-.5-1.9-.5-3s.4-2.9,1-4,1.6-2,2.7-2.7,2.4-1.2,3.8-1.6C327.1.2,328.5,0,329.9,0c1.2,0,2.4,0,3.5.3s2.3.5,3.3,1,2,1.1,2.9,1.8,1.6,1.7,2.1,2.9l-4.5,2.3h0Z"/>
        <path class="st0" d="M388,31.2h-6.8l-8.8-10.1h-5.5v10.1h-5.7V1c2.4,0,4.8,0,7.2,0,2.4,0,4.8,0,7.2,0,1.8,0,3.4.3,4.7.9s2.5,1.3,3.4,2.2,1.6,2,2.1,3.2.7,2.4.7,3.8-.1,2.1-.4,3.1-.7,1.9-1.3,2.8-1.4,1.6-2.3,2.2-2.2,1.1-3.6,1.4l9.1,10.3v.4h0ZM367,6.3v9.6h8.6c.9,0,1.7-.1,2.3-.4s1.2-.6,1.6-1.1c.4-.5.7-1,.9-1.6.2-.6.3-1.2.3-1.8s-.1-1.2-.3-1.8c-.2-.6-.5-1.1-.9-1.6s-1-.8-1.6-1.1-1.4-.4-2.3-.4h-8.6Z"/>
        <rect class="st0" x="141.6" y="25.6" width="22.6" height="5.6"/>
        <rect class="st0" x="141.6" y="13.3" width="22.6" height="5.6"/>
        <rect class="st0" x="141.6" y="1" width="22.6" height="5.6"/>
      </g>
      <g>
        <path class="st1" d="M6.1,10.2c2.1,0,3.8.7,5.2,2.2,1.4,1.5,2.1,3.3,2.1,5.4s-.7,4-2.1,5.4c-1.4,1.5-3.1,2.2-5.2,2.2H0v-15.3h6.1ZM6.1,22.5c1.3,0,2.4-.4,3.2-1.3.8-.9,1.2-2,1.2-3.5s-.4-2.6-1.2-3.4c-.8-.9-1.9-1.3-3.2-1.3h-3v9.5h3Z"/>
        <path class="st1" d="M32,25.4l-.9-2.8h-6.1l-.9,2.8h-3.2l5.3-15.3h3.7l5.4,15.3h-3.3,0ZM26,19.9h4.2l-2.1-6.2-2.1,6.2h0Z"/>
        <path class="st1" d="M52.8,10.2h3v15.3h-2.3l-6.5-9.3v9.3h-3v-15.3h2.3l6.5,9.3v-9.3Z"/>
        <path class="st1" d="M74.5,10.2h3v15.3h-3v-6.3h-5.7v6.3h-3v-15.3h3v6.1h5.7v-6.1Z"/>
        <path class="st1" d="M91.1,10.1l-1.6,6.1h-2.3l.9-6.1h3.1Z"/>
        <path class="st1" d="M99.4,22l2.6-1.5c.6,1.5,1.8,2.3,3.5,2.3s2.4-.7,2.4-1.6-.2-1-.7-1.2c-.5-.3-1.3-.6-2.6-1-1.4-.4-2.2-.7-3.2-1.4-.9-.7-1.4-1.8-1.4-3.1s.5-2.5,1.5-3.3c1-.8,2.2-1.2,3.6-1.2,2.5,0,4.4,1.3,5.4,3.4l-2.5,1.5c-.6-1.3-1.6-2-2.9-2s-2,.6-2,1.5.2.9.6,1.2c.4.3,1.2.6,2.3,1l1.1.4c.2,0,.6.2,1,.4.4.1.7.3,1,.5.5.3,1.2.8,1.4,1.4.3.5.6,1.3.6,2.2,0,1.4-.5,2.5-1.6,3.4-1,.8-2.4,1.2-4,1.2-3,0-5.2-1.4-6-3.8h0Z"/>
      </g>
    </g>
  </g>
</svg>