<?xml version="1.0" encoding="UTF-8"?>
<svg id="Layer_2" data-name="Layer 2" xmlns="http://www.w3.org/2000/svg" viewBox="0 0 388.04 31.95">
  <defs>
    <style>
      .cls-1 {
        fill: #666;
      }

      .cls-2 {
        fill: #ccc;
      }
    </style>
  </defs>
  <g id="Layer_1-2" data-name="Layer 1">
    <g>
      <g>
        <path class="cls-2" d="M203.2,1.03h6.24v.27l-10.2,14.63,10.49,15.07v.17h-6.37l-7.69-11.33-7.72,11.33h-6.37v-.17l10.47-15.07-10.18-14.63v-.27h6.24l7.55,11.25,7.53-11.25Z"/>
        <path class="cls-2" d="M241.52.99c1.84,0,3.45.3,4.84.91s2.54,1.42,3.46,2.42c.92,1,1.61,2.14,2.07,3.42.46,1.28.7,2.58.7,3.91,0,1.33-.22,2.64-.68,3.91-.46,1.28-1.16,2.41-2.08,3.42-.93,1-2.08,1.81-3.46,2.42-1.38.61-3,.91-4.85.91h-8.51v8.87h-5.7V1.03c2.4,0,4.77,0,7.12-.02,2.35-.01,4.71-.02,7.1-.02ZM233.01,17.09h8.51c1.21,0,2.21-.26,3.03-.79.81-.53,1.42-1.18,1.82-1.98.4-.79.6-1.65.6-2.58s-.2-1.78-.61-2.58c-.41-.79-1.01-1.45-1.82-1.98-.81-.53-1.81-.79-3.02-.79h-8.51v10.68Z"/>
        <path class="cls-2" d="M284.78.44c1.72,0,3.31.21,4.75.63,1.44.42,2.74,1,3.89,1.73,1.15.74,2.15,1.61,3.02,2.61.86,1,1.58,2.09,2.14,3.26.57,1.17.99,2.4,1.26,3.7.27,1.3.4,2.6.39,3.9s-.16,2.59-.44,3.87c-.28,1.28-.7,2.49-1.25,3.65s-1.25,2.23-2.09,3.22c-.84.99-1.83,1.84-2.97,2.56-1.14.72-2.44,1.29-3.88,1.69-1.44.41-3.05.61-4.81.61s-3.37-.2-4.82-.6c-1.45-.4-2.75-.96-3.9-1.67s-2.15-1.56-3-2.53c-.85-.97-1.55-2.04-2.11-3.2s-.98-2.38-1.25-3.66c-.27-1.28-.41-2.58-.41-3.9s.14-2.62.42-3.92c.28-1.3.71-2.53,1.28-3.71s1.29-2.27,2.14-3.27c.85-1,1.86-1.87,3.01-2.61,1.15-.74,2.44-1.31,3.88-1.73,1.44-.42,3.02-.63,4.76-.63ZM284.78,5.59c-1.78,0-3.3.33-4.56.98-1.26.65-2.3,1.5-3.1,2.53-.81,1.04-1.39,2.2-1.74,3.48s-.52,2.56-.49,3.84c.03,1.23.23,2.46.6,3.68.37,1.22.95,2.32,1.73,3.29.78.97,1.8,1.76,3.04,2.37,1.24.6,2.75.9,4.53.9,1.18,0,2.24-.14,3.18-.42.95-.28,1.78-.66,2.51-1.15s1.35-1.06,1.87-1.72c.52-.67.95-1.38,1.28-2.14.34-.76.59-1.56.75-2.39.16-.83.25-1.65.26-2.48.01-.84-.06-1.69-.21-2.55-.15-.86-.4-1.69-.74-2.49-.34-.8-.77-1.55-1.29-2.24-.53-.69-1.16-1.3-1.89-1.82-.74-.52-1.58-.92-2.53-1.22-.95-.29-2.02-.44-3.2-.44Z"/>
        <path class="cls-2" d="M337.23,8.33c-.25-.43-.61-.85-1.08-1.25-.47-.4-1.02-.76-1.64-1.07-.62-.32-1.31-.57-2.07-.76-.76-.19-1.54-.28-2.35-.28-1.05,0-1.97.11-2.75.32-.79.21-1.44.49-1.96.85-.52.36-.9.78-1.16,1.26s-.38,1.01-.38,1.57c0,.66.18,1.21.55,1.64.36.43.85.8,1.46,1.08.61.29,1.32.51,2.13.67.81.16,1.67.29,2.59.39,1.05.13,2.08.29,3.08.48,1,.2,1.96.45,2.86.76.9.31,1.73.69,2.49,1.16s1.41,1.03,1.96,1.69c.55.67.97,1.45,1.28,2.37.31.91.46,1.96.46,3.15,0,1.68-.34,3.13-1.03,4.34-.69,1.21-1.61,2.21-2.78,2.99-1.16.78-2.51,1.35-4.04,1.72-1.53.37-3.13.56-4.81.56-1.54,0-2.99-.13-4.34-.38s-2.59-.67-3.7-1.25c-1.11-.58-2.1-1.35-2.96-2.29s-1.57-2.11-2.13-3.48l4.75-2.46c.34.83.79,1.54,1.38,2.14.58.6,1.24,1.1,1.99,1.49.74.39,1.55.68,2.43.86.88.18,1.77.27,2.68.27s1.76-.08,2.6-.24c.83-.16,1.57-.42,2.22-.79.64-.36,1.16-.83,1.54-1.4.39-.57.58-1.26.58-2.09,0-.71-.18-1.32-.53-1.83s-.84-.93-1.46-1.28c-.62-.35-1.36-.63-2.21-.84-.85-.21-1.78-.37-2.79-.48-1.02-.13-2.03-.28-3.02-.46-.99-.18-1.92-.42-2.8-.73-.88-.3-1.68-.67-2.42-1.11-.74-.44-1.37-.98-1.9-1.61-.53-.63-.95-1.37-1.25-2.23-.3-.85-.45-1.85-.45-2.99,0-1.56.35-2.88,1.04-3.98.69-1.1,1.6-2,2.71-2.71,1.11-.71,2.37-1.23,3.75-1.57,1.39-.34,2.78-.51,4.16-.53,1.18,0,2.35.09,3.51.28s2.27.51,3.31.97c1.04.46,2,1.07,2.86,1.84.86.77,1.58,1.74,2.15,2.9l-4.52,2.33Z"/>
        <path class="cls-2" d="M388.04,31.18h-6.75l-8.79-10.07h-5.47v10.07h-5.7V.99c2.41,0,4.8,0,7.18.02,2.38.01,4.76.02,7.16.02,1.78.01,3.35.3,4.7.85,1.35.55,2.48,1.29,3.4,2.22s1.6,1.99,2.06,3.18.69,2.45.69,3.75c0,1.04-.13,2.06-.39,3.06-.26,1-.68,1.93-1.27,2.79-.59.86-1.37,1.6-2.34,2.23-.97.63-2.18,1.09-3.61,1.39l9.12,10.3v.38ZM367.04,6.33v9.65h8.64c.9,0,1.67-.14,2.32-.41s1.19-.64,1.61-1.09c.42-.46.73-.97.94-1.55.2-.57.3-1.16.3-1.77s-.1-1.19-.3-1.78c-.2-.58-.52-1.1-.94-1.55-.42-.45-.96-.81-1.61-1.09-.65-.28-1.43-.42-2.32-.42h-8.64Z"/>
        <rect class="cls-2" x="141.59" y="25.58" width="22.56" height="5.59"/>
        <rect class="cls-2" x="141.59" y="13.31" width="22.56" height="5.59"/>
        <rect class="cls-2" x="141.59" y="1.03" width="22.56" height="5.59"/>
      </g>
      <g>
        <path class="cls-1" d="M6.06,10.16c2.09,0,3.84.74,5.24,2.2,1.42,1.46,2.12,3.27,2.12,5.43s-.7,3.97-2.12,5.43c-1.4,1.46-3.14,2.2-5.24,2.2H0v-15.27h6.06ZM6.06,22.55c1.33,0,2.4-.44,3.23-1.31.83-.89,1.24-2.03,1.24-3.45s-.41-2.55-1.24-3.42c-.83-.89-1.9-1.33-3.23-1.33h-3.05v9.51h3.05Z"/>
        <path class="cls-1" d="M32.02,25.43l-.92-2.75h-6.09l-.92,2.75h-3.25l5.34-15.27h3.73l5.37,15.27h-3.27ZM25.98,19.87h4.19l-2.09-6.24-2.09,6.24Z"/>
        <path class="cls-1" d="M52.81,10.16h3.01v15.27h-2.29l-6.54-9.34v9.34h-3.01v-15.27h2.29l6.54,9.31v-9.31Z"/>
        <path class="cls-1" d="M74.54,10.16h2.99v15.27h-2.99v-6.33h-5.67v6.33h-3.01v-15.27h3.01v6.06h5.67v-6.06Z"/>
        <path class="cls-1" d="M91.14,10.14l-1.64,6.06h-2.29l.87-6.06h3.05Z"/>
        <path class="cls-1" d="M99.36,21.96l2.57-1.51c.59,1.55,1.77,2.33,3.51,2.33s2.44-.68,2.44-1.61c0-.55-.24-.96-.72-1.24-.48-.31-1.33-.63-2.57-.98-1.37-.41-2.2-.74-3.16-1.42-.94-.7-1.44-1.75-1.44-3.14s.48-2.49,1.46-3.29c.98-.83,2.18-1.24,3.56-1.24,2.46,0,4.41,1.27,5.45,3.42l-2.53,1.46c-.61-1.31-1.59-1.96-2.92-1.96-1.24,0-2.01.63-2.01,1.53,0,.48.2.87.59,1.18.41.28,1.18.61,2.31.96l1.05.35c.24.07.57.2.98.37.41.15.74.31.96.46.46.28,1.16.83,1.44,1.35.33.52.57,1.29.57,2.16,0,1.42-.52,2.53-1.55,3.36-1.03.83-2.36,1.24-3.99,1.24-3.03,0-5.15-1.44-6-3.77Z"/>
      </g>
    </g>
  </g>
</svg>