<svg clip-rule="evenodd" fill-rule="evenodd" stroke-linejoin="round" stroke-miterlimit="2" viewBox="0 0 24 24" xmlns="http://www.w3.org/2000/svg"><path d="m12 5.462c3.609 0 6.538 2.929 6.538 6.538s-2.929 6.538-6.538 6.538-6.538-2.929-6.538-6.538 2.929-6.538 6.538-6.538zm-2.508 2.756c-1.223.813-2.03 2.204-2.03 3.782 0 2.505 2.033 4.538 4.538 4.538 1.423 0 2.694-.656 3.527-1.683-.173-.023-.344-.05-.512-.081-2.899-.526-4.916-2.287-5.371-4.93-.081-.473-.146-1.018-.152-1.626zm1.508-5.218c0-.552.448-1 1-1s1 .448 1 1v.551c0 .552-.448 1-1 1s-1-.448-1-1zm6.657 1.929c.39-.39 1.024-.39 1.414 0s.39 1.024 0 1.414l-.389.39c-.391.39-1.024.39-1.415 0-.39-.391-.39-1.024 0-1.415zm3.343 6.071c.552 0 1 .448 1 1s-.448 1-1 1h-.551c-.552 0-1-.448-1-1s.448-1 1-1zm-1.929 6.657c.39.39.39 1.024 0 1.414s-1.024.39-1.414 0l-.39-.389c-.39-.391-.39-1.024 0-1.415.391-.39 1.024-.39 1.415 0zm-6.071 3.343c0 .552-.448 1-1 1s-1-.448-1-1v-.551c0-.552.448-1 1-1s1 .448 1 1zm-6.657-1.929c-.39.39-1.024.39-1.414 0s-.39-1.024 0-1.414l.389-.39c.391-.39 1.024-.39 1.415 0 .39.391.39 1.024 0 1.415zm-3.343-6.071c-.552 0-1-.448-1-1s.448-1 1-1h.551c.552 0 1 .448 1 1s-.448 1-1 1zm1.929-6.657c-.39-.39-.39-1.024 0-1.414s1.024-.39 1.414 0l.39.389c.39.391.39 1.024 0 1.415-.391.39-1.024.39-1.415 0z"/></svg>